<svg width="200" height="200" viewBox="0 0 200 200" fill="none" xmlns="http://www.w3.org/2000/svg">
<path d="M35.4414 91.4901C42.0234 82.2901 51.8874 78.1201 51.8874 78.1201C52.2094 77.9861 50.8374 65.3821 50.8094 64.4881C50.3934 49.7641 52.8354 34.4441 63.9034 23.8121C77.7394 10.5301 102.843 7.77814 118.715 18.9681C118.515 18.8201 123.937 14.5461 124.395 14.2721C127.358 12.4843 130.701 11.4215 134.151 11.1701C148.039 10.1701 160.775 21.0821 165.985 34.2821C171.195 47.4821 169.999 77.5581 160.441 86.2321" stroke="#CCDDE2" strokeWidth="1.01" stroke-miterlimit="10"/>
<path d="M29.5078 107.45C29.8499 103.827 30.7815 100.283 32.2658 96.9602C32.4071 96.6442 32.5551 96.3349 32.7098 96.0322" stroke="#CCDDE2" strokeWidth="1.01" stroke-miterlimit="10"/>
<path d="M46.6719 145.738C45.0719 144.284 43.5899 142.804 42.2319 141.316" stroke="#CCDDE2" strokeWidth="1.01" stroke-miterlimit="10"/>
<path d="M180 102.496C180.012 103.496 180 104.516 179.952 105.538C179.668 111.86 178.314 118.394 174.93 123.718C174.314 124.7 173.627 125.636 172.874 126.518C165.674 125.568 164.6 118.224 156.274 114.072C146.3 109.086 129.968 110.872 129.968 110.872L138.014 103.45C137.584 81.0976 121.174 82.4696 121.174 82.4696L120.34 84.5116C120.974 82.6623 121.614 80.9376 122.262 79.3376L122.298 79.2536C129.898 60.3776 137.772 58.0376 143.898 55.3116C145.362 54.964 146.86 54.7855 148.364 54.7796C164.026 54.6956 173.218 70.6456 177.238 83.4856C178.238 86.6856 179.776 93.5296 179.982 101.226C179.986 101.638 180 102.068 180 102.496Z" fill="#2E2E2E"/>
<path d="M188.8 186.272C187.584 187.946 185.578 188.858 183.51 188.858H159.75C158.837 188.871 157.931 188.693 157.091 188.335C156.251 187.977 155.495 187.447 154.872 186.78C154.788 186.694 154.709 186.604 154.636 186.508C153.892 185.586 153.426 184.47 153.294 183.292C153.174 182.21 153.978 181.248 155.066 181.292C155.478 181.308 155.871 181.473 156.171 181.756C156.471 182.039 156.658 182.421 156.698 182.832C156.698 182.918 156.716 183.002 156.728 183.086C156.816 183.574 157.031 184.031 157.35 184.41C157.633 184.744 157.988 185.009 158.388 185.186C158.788 185.363 159.223 185.447 159.66 185.432H183.612C184.041 185.439 184.466 185.354 184.859 185.181C185.251 185.008 185.602 184.753 185.886 184.432C186.207 184.061 186.426 183.613 186.521 183.132C186.616 182.651 186.585 182.153 186.43 181.688L175.732 149.878C175.645 149.634 175.541 149.396 175.422 149.166C174.794 147.839 173.799 146.721 172.554 145.943C171.31 145.165 169.868 144.761 168.4 144.778C163.896 144.832 158.178 144.844 157.64 144.844C145.654 144.8 140.2 144.8 137.2 144.88C137.406 144.143 137.778 143.463 138.288 142.892C138.288 142.892 138.3 142.88 138.3 142.874C139.032 142.094 140.033 141.623 141.1 141.556C145.544 141.192 149.944 140.528 154.218 139.368C161.76 137.324 168.954 133.818 173.952 128.18C176.385 125.451 178.224 122.246 179.352 118.768C180.228 116.007 180.779 113.153 180.996 110.264C181.074 109.352 181.122 108.433 181.14 107.508V107.466C181.14 107.254 181.152 107.036 181.152 106.824C181.179 105.506 181.119 104.188 180.972 102.878C182.278 102.888 183.529 103.406 184.46 104.322C184.542 104.537 184.602 104.761 184.64 104.988C184.676 105.203 184.694 105.421 184.694 105.64V131.51C184.696 133.277 184.348 135.027 183.668 136.658C182.989 138.289 181.992 139.769 180.736 141.012C178.656 143.072 178.064 146.198 179.05 148.948L189.682 180.584C190.003 181.533 190.091 182.546 189.937 183.536C189.784 184.526 189.394 185.465 188.8 186.272Z" fill="#283890"/>
<path d="M42.2344 185.474V112.948H46.6724V185.504L42.2344 185.474Z" fill="#2E2E2E"/>
<path d="M129.97 110.862C133.148 110.524 136.824 110.124 140.354 110.204" stroke="black" strokeWidth="1.01" stroke-miterlimit="10"/>
<path d="M112.658 114.065C107.03 115.485 101.554 117.535 96.8816 120.943C89.0416 126.655 85.4576 137.311 88.6616 146.543C88.6616 146.555 101.262 182.901 101.262 182.901H97.9456C97.231 182.901 96.5234 183.042 95.8636 183.317C95.2038 183.592 94.605 183.994 94.1016 184.501C93.1156 185.481 92.6296 187.115 92.6296 188.615H122.476L111.134 151.515C110.851 150.601 110.787 149.633 110.948 148.689C111.109 147.745 111.489 146.853 112.059 146.084C112.629 145.314 113.372 144.69 114.228 144.261C115.084 143.833 116.028 143.611 116.986 143.615C123.448 143.797 129.45 144.045 135.986 143.761" stroke="black" strokeWidth="1.01" stroke-miterlimit="10"/>
<path d="M180.045 105.84V105.8C179.755 97.9998 179.363 90.3038 177.229 83.4798C173.209 70.6398 164.017 54.6898 148.355 54.7738C146.851 54.7796 145.353 54.9581 143.889 55.3058C133.565 57.7598 126.395 68.3378 122.289 79.2478L122.253 79.3318C121.861 80.3784 121.499 81.4224 121.165 82.4638C120.939 83.1646 120.66 83.8472 120.331 84.5058C119.073 87.0404 117.08 89.1363 114.611 90.5191C112.142 91.9019 109.314 92.5072 106.495 92.2558C87.5352 90.5318 62.5472 89.5478 54.6772 102.87" stroke="black" strokeWidth="1.01" stroke-miterlimit="10"/>
<path d="M149.02 91.3311C146.26 94.6631 143.354 97.8811 140.35 100.993C134.2 107.369 128.894 114.141 119.35 114.593C111.736 114.959 104.488 112.037 97.2876 110.011C89.5856 107.845 85.6876 106.113 78.5096 103.925C76.4424 103.297 74.2978 102.961 72.1376 102.925L64.9116 102.981" stroke="black" strokeWidth="1.01" stroke-miterlimit="10"/>
<path d="M120.836 183.369C121.524 183.061 122.27 182.902 123.024 182.905H126.348C126.348 182.905 119.4 169.399 113.844 160.409" stroke="black" strokeWidth="1.01" stroke-miterlimit="10"/>
<path d="M125.4 143.792L148.64 188.858H122.352H117.584" stroke="black" strokeWidth="1.01" stroke-miterlimit="10"/>
<path d="M188.799 186.272C187.583 187.946 185.577 188.858 183.509 188.858H159.749C157.779 188.858 155.857 188.042 154.629 186.502C153.885 185.58 153.419 184.464 153.287 183.286C153.167 182.204 153.971 181.242 155.059 181.286C155.472 181.302 155.864 181.467 156.164 181.75C156.464 182.033 156.651 182.415 156.691 182.826C156.74 183.407 156.968 183.958 157.343 184.404C157.63 184.733 157.986 184.995 158.385 185.171C158.784 185.348 159.217 185.435 159.653 185.426H183.611C184.04 185.433 184.465 185.348 184.858 185.175C185.25 185.002 185.601 184.747 185.885 184.426C186.206 184.055 186.425 183.607 186.52 183.126C186.615 182.645 186.584 182.147 186.429 181.682L175.731 149.878C175.19 148.372 174.193 147.072 172.879 146.158C171.565 145.244 170 144.762 168.399 144.778C163.895 144.832 158.177 144.844 157.639 144.844C144.293 144.802 139.039 144.802 136.255 144.904C136.212 144.904 136.169 144.895 136.129 144.878C136.089 144.861 136.053 144.837 136.023 144.806C135.992 144.775 135.968 144.739 135.952 144.698C135.935 144.658 135.927 144.615 135.927 144.572C135.923 143.337 136.376 142.145 137.199 141.224C137.203 141.222 137.205 141.219 137.207 141.215C137.209 141.212 137.211 141.208 137.211 141.204C137.944 140.426 138.945 139.956 140.011 139.888C144.455 139.524 148.855 138.86 153.129 137.7C160.671 135.656 167.865 132.15 172.863 126.512C175.296 123.783 177.135 120.578 178.263 117.1C179.137 114.34 179.686 111.487 179.901 108.6C179.98 107.685 180.028 106.767 180.045 105.844V105.8C180.045 105.59 180.057 105.372 180.057 105.16C180.084 103.842 180.024 102.524 179.877 101.214C182.053 101.202 184.247 102.784 184.627 104.992C184.663 105.207 184.681 105.425 184.681 105.644V131.51C184.683 133.277 184.335 135.027 183.655 136.658C182.976 138.289 181.979 139.769 180.723 141.012C178.643 143.072 178.051 146.198 179.037 148.948L189.669 180.584C189.992 181.532 190.082 182.544 189.93 183.534C189.779 184.525 189.391 185.464 188.799 186.272Z" stroke="black" strokeWidth="1.01" stroke-miterlimit="10"/>
<path d="M74.648 107.452H12.746C11.2294 107.452 10 108.682 10 110.198V110.2C10 111.717 11.2294 112.946 12.746 112.946H74.648C76.1646 112.946 77.394 111.717 77.394 110.2V110.198C77.394 108.682 76.1646 107.452 74.648 107.452Z" stroke="black" strokeWidth="1.01" stroke-miterlimit="10"/>
<path d="M57.1178 185.817H32.0878C31.2384 185.817 30.5498 186.506 30.5498 187.355C30.5498 188.205 31.2384 188.893 32.0878 188.893H57.1178C57.9672 188.893 58.6558 188.205 58.6558 187.355C58.6558 186.506 57.9672 185.817 57.1178 185.817Z" stroke="black" strokeWidth="1.01" stroke-miterlimit="10"/>
<path d="M38.772 104.986V105.262C38.812 107.16 40.598 107.45 42.138 107.462L71.91 107.442C73.214 107.442 74.29 106.442 74.292 105.214V105.162C74.268 103.962 73.22 102.984 71.932 102.982C71.932 102.982 55.276 102.922 42.376 102.884C42.144 103.56 41.556 104.084 40.822 104.512C40.1905 104.843 39.4846 105.006 38.772 104.986Z" stroke="black" strokeWidth="1.01" stroke-miterlimit="10"/>
<path d="M22.4001 78.2457C22.4064 78.5617 22.4968 78.8704 22.6621 79.1397L36.4621 102.318C36.6407 102.596 36.8751 102.835 37.1504 103.019C37.4258 103.203 37.7362 103.328 38.0621 103.386C38.6135 103.494 39.185 103.432 39.7001 103.208C40.5461 102.832 41.0341 102.074 41.0181 101.306C41.0151 101.209 41.0051 101.113 40.9881 101.018C40.9457 100.806 40.8672 100.603 40.7561 100.418L26.9561 77.2397C26.3561 76.2257 24.8881 75.8277 23.7081 76.3497C22.8661 76.7177 22.3781 77.4757 22.4001 78.2457Z" stroke="black" strokeWidth="1.01" stroke-miterlimit="10"/>
<path d="M59.7158 102.982C59.7158 102.982 61.3778 101.4 65.1998 98.8877" stroke="black" strokeWidth="1.01" stroke-miterlimit="10"/>
<path d="M73.2679 76.9823L67.2099 83.7003C66.788 84.1684 66.2025 84.4566 65.5742 84.5054C64.9459 84.5541 64.323 84.3597 63.8339 83.9623C63.5638 83.743 63.3432 83.4689 63.1868 83.1581C63.0304 82.8473 62.9418 82.5069 62.9266 82.1593C62.9115 81.8117 62.9703 81.4648 63.0991 81.1416C63.2279 80.8184 63.4238 80.5262 63.6739 80.2843L64.7819 79.2123C64.8239 79.1523 64.8719 79.0983 64.9199 79.0423L65.7199 78.1603L72.5999 70.6843C73.4348 69.7666 74.4864 69.0728 75.6585 68.6661C76.8307 68.2594 78.086 68.1529 79.3099 68.3563L79.4119 68.3743" stroke="black" strokeWidth="1.01" stroke-miterlimit="10"/>
<path d="M81.8001 78.7996H75.7401C75.0506 78.7996 74.3892 78.5257 73.9017 78.0381C73.4141 77.5505 73.1401 76.8892 73.1401 76.1996C73.1401 75.51 73.4141 74.8487 73.9017 74.3611C74.3892 73.8735 75.0506 73.5996 75.7401 73.5996H84.3401" stroke="black" strokeWidth="1.01" stroke-miterlimit="10"/>
<path d="M77.1543 78.7998C77.0703 79.8618 76.6643 80.6478 76.0663 81.1998C74.5263 82.5998 71.7023 82.4458 69.7383 81.4838" stroke="black" strokeWidth="1.01" stroke-miterlimit="10"/>
<path d="M65.73 78.156C63.988 76.058 64.346 73.206 65.7 71C71.29 61.872 81.946 67.494 88.952 71.428C93.1225 73.7811 97.1092 76.446 100.878 79.4C104.214 82 107.302 85.112 111.31 86.676C113.71 87.614 116.544 87.838 118.932 86.756" stroke="black" strokeWidth="1.01" stroke-miterlimit="10"/>
<path d="M76.0659 81.1836C80.2932 84.3038 84.3298 87.6745 88.1539 91.2776" stroke="black" strokeWidth="1.01" stroke-miterlimit="10"/>
<path d="M127.502 32.1163C128.514 33.0403 130.068 33.0903 131.354 32.9663C132.998 32.8163 134.626 32.4183 136.236 32.0823L137.214 32.0323H137.228C137.416 32.0341 137.601 32.0729 137.773 32.1463C137.946 32.2198 138.102 32.3265 138.234 32.4604C138.365 32.5943 138.469 32.7528 138.539 32.9267C138.609 33.1007 138.644 33.2867 138.642 33.4743C138.664 35.585 138.454 37.6917 138.014 39.7563L139.888 40.7703C140.13 40.0943 139.858 39.1203 140.432 39.0463C140.8 38.3603 141.348 37.9143 142.208 38.4243C143.892 39.4243 144.556 42.3623 142.934 43.7083L143.974 45.6523C144.337 46.3337 144.924 46.8682 145.637 47.1644C146.35 47.4606 147.143 47.5001 147.882 47.2763L146.82 44.9283C149.312 45.3703 151.056 42.2603 150.296 40.3623C149.778 39.0583 149.804 38.0443 150.496 36.7763C150.542 36.6903 150.072 36.5763 150.112 36.4883C150.136 35.5583 149.878 34.5623 149.43 34.0883C148.642 33.2403 147.056 33.0883 147.38 31.8003C147.524 31.2397 147.577 30.6597 147.538 30.0823C147.453 29.3272 147.208 28.5991 146.819 27.9467C146.429 27.2944 145.905 26.733 145.28 26.3003C143.968 25.4383 142.5 26.2203 141.098 26.1983C139.396 26.1803 138.176 24.7363 136.392 24.7143C135.504 24.7003 134.792 25.0463 134.032 25.4763C133.396 25.8423 132.77 26.2243 132.162 26.6383C131.554 27.0523 131.014 27.4103 130.288 27.4123C129.342 27.4243 128.428 26.8243 127.476 27.1043C126.995 27.2338 126.572 27.5229 126.276 27.9243C125.974 29.4003 126.52 31.2263 127.502 32.1163Z" fill="#283890"/>
<path d="M139.896 40.5504C140.018 40.0294 140.198 39.5236 140.432 39.0424C140.8 38.3564 141.35 37.9104 142.208 38.4204C143.892 39.4204 144.556 42.3584 142.934 43.7044L143.974 45.6484C144.336 46.3298 144.924 46.8643 145.637 47.1605C146.35 47.4567 147.143 47.4962 147.882 47.2724" stroke="black" strokeWidth="1.01" strokeLinecap="round" strokeLinejoin="round"/>
<path d="M146.82 44.9238L147.878 47.2758C148.144 47.8378 148.906 49.5658 149.704 51.3618C150.272 52.6478 150.864 53.9718 151.304 54.9458" stroke="black" strokeWidth="1.01" strokeLinecap="round" strokeLinejoin="round"/>
<path d="M129.682 36.4783C129.682 36.4783 132.8 35.7023 134.162 38.0663" stroke="black" strokeWidth="1.01" stroke-miterlimit="10"/>
<path d="M130.6 43.536C129.76 43.766 128.63 43.972 127.982 43.24L129.394 40.268C129.737 39.5392 129.821 38.7154 129.634 37.932C129.326 36.614 128.556 34.612 129.382 32.874" stroke="black" strokeWidth="1.01" stroke-miterlimit="10"/>
<path d="M132.698 39.5527C132.935 39.1601 132.752 38.6163 132.291 38.338C131.829 38.0597 131.263 38.1524 131.026 38.545C130.789 38.9376 130.972 39.4814 131.434 39.7597C131.895 40.038 132.461 39.9453 132.698 39.5527Z" fill="black"/>
<path d="M137.248 58.2638L136.508 50.0518" stroke="black" strokeWidth="1.01" stroke-miterlimit="10"/>
<path d="M139.888 40.7654C139.888 40.6934 139.888 40.6194 139.888 40.5474C139.892 40.4701 139.892 40.3927 139.888 40.3154" stroke="black" strokeWidth="1.01" strokeLinecap="round" strokeLinejoin="round"/>
<path d="M139.89 40.768L139.246 40.422L138.014 39.752" stroke="black" strokeWidth="1.01" strokeLinecap="round" strokeLinejoin="round"/>
<path d="M134.734 43.748C134.734 43.748 134.672 45.828 132.294 46.684" stroke="black" strokeWidth="1.01" stroke-miterlimit="10"/>
<path d="M146.82 44.9236C149.312 45.3656 151.056 42.2556 150.296 40.3576C149.778 39.0536 149.804 38.0396 150.496 36.7716C150.542 36.6856 150.58 36.6016 150.62 36.5176C151.134 35.3836 150.952 34.2596 150.144 33.2956C149.378 32.3836 148.224 32.0636 148.556 30.7336C148.705 30.1562 148.761 29.5586 148.72 28.9636C148.634 28.1871 148.382 27.4381 147.982 26.767C147.582 26.096 147.043 25.5186 146.4 25.0736C145.052 24.1796 143.534 24.9896 142.082 24.9676C140.334 24.9416 139.072 23.4536 137.238 23.4316C136.32 23.4316 135.58 23.7736 134.8 24.2176C134.144 24.5956 133.494 24.9936 132.874 25.4176C132.254 25.8416 131.674 26.2176 130.938 26.2176C129.962 26.2176 129.02 25.6176 128.044 25.8976C127.068 26.1776 126.488 26.9856 126.296 27.9216C125.984 29.3896 126.53 31.2236 127.512 32.1216C128.524 33.0456 130.078 33.0956 131.364 32.9716C133.008 32.8216 134.636 32.4236 136.246 32.0876L137.224 32.0376H137.238C137.426 32.0395 137.611 32.0782 137.784 32.1517C137.956 32.2251 138.113 32.3319 138.244 32.4658C138.375 32.5997 138.479 32.7581 138.549 32.9321C138.619 33.1061 138.654 33.2921 138.652 33.4796C138.675 35.5904 138.464 37.6971 138.024 39.7616" stroke="black" strokeWidth="1.01" stroke-miterlimit="10"/>
<path d="M140.265 47.2005C140.265 47.2005 136.549 52.1364 133.247 51.0305C129.945 49.9245 129.777 43.8145 129.777 43.8145" stroke="black" strokeWidth="1.01" strokeLinecap="round" strokeLinejoin="round"/>
<path d="M42.2344 185.474V112.948H46.6724V185.504" stroke="black" strokeWidth="1.01" stroke-miterlimit="10"/>
<path d="M46.3178 70.746C50.2744 70.746 53.4818 67.5385 53.4818 63.582C53.4818 59.6254 50.2744 56.418 46.3178 56.418C42.3612 56.418 39.1538 59.6254 39.1538 63.582C39.1538 67.5385 42.3612 70.746 46.3178 70.746Z" fill="#283890"/>
<path d="M43.5157 65.4299C43.3061 65.2866 43.12 65.1119 42.9637 64.9119C42.6871 64.5695 42.5456 64.1377 42.5659 63.698C42.5861 63.2584 42.7668 62.8414 43.0736 62.5259C43.2738 62.3198 43.5191 62.1629 43.7901 62.0675C44.0611 61.972 44.3505 61.9407 44.6356 61.9759C44.5725 61.5792 44.6401 61.1727 44.8284 60.8179C45.0167 60.463 45.3154 60.1791 45.6793 60.009C46.0432 59.8389 46.4526 59.7919 46.8456 59.875C47.2386 59.9582 47.5938 60.167 47.8576 60.4699C48.4156 61.1019 48.6777 62.0419 48.7757 62.8699C48.8263 63.3021 48.833 63.7383 48.7956 64.1719C48.7776 64.3899 48.6996 65.6479 48.4956 65.7279C47.1476 66.2439 44.8497 66.3559 43.5157 65.4299Z" fill="white"/>
<path d="M96.8644 69.056C98.9852 69.056 100.704 67.3367 100.704 65.216C100.704 63.0952 98.9852 61.376 96.8644 61.376C94.7436 61.376 93.0244 63.0952 93.0244 65.216C93.0244 67.3367 94.7436 69.056 96.8644 69.056Z" fill="#283890"/>
<path d="M96.5999 63.4356C96.7167 63.365 96.8444 63.3144 96.9779 63.2856C97.2073 63.2305 97.4489 63.261 97.6573 63.3715C97.8658 63.482 98.0267 63.6648 98.1099 63.8856C98.164 64.0299 98.184 64.1848 98.1684 64.3381C98.1528 64.4915 98.102 64.6391 98.0199 64.7696C98.2221 64.8339 98.3987 64.9609 98.524 65.1322C98.6493 65.3036 98.7169 65.5103 98.7169 65.7226C98.7169 65.9348 98.6493 66.1416 98.524 66.3129C98.3987 66.4843 98.2221 66.6113 98.0199 66.6756C97.5618 66.7757 97.0846 66.741 96.6459 66.5756C96.4248 66.501 96.2117 66.4045 96.0099 66.2876C95.9079 66.2296 95.3139 65.9056 95.3239 65.7876C95.3819 65.0116 95.8519 63.8716 96.5999 63.4356Z" fill="white"/>
<path d="M67.0898 60.8361C67.5201 61.1951 68.0005 61.4896 68.5158 61.7101C69.4646 62.1061 70.5 62.2488 71.5206 62.1244C72.5411 61.9999 73.5119 61.6125 74.3378 61.0001C74.9778 60.5121 75.5378 59.8381 76.1998 59.3481C76.6616 58.9861 77.2161 58.7615 77.7998 58.7001C77.9938 58.7055 78.1863 58.6651 78.3618 58.5821C78.8058 58.3061 78.2818 57.8481 78.2358 57.5241C78.1741 57.0058 78.3043 56.4829 78.6018 56.0541C79.3614 54.9212 79.7059 53.5604 79.5766 52.2025C79.4473 50.8446 78.8524 49.5732 77.8926 48.604C76.9328 47.6348 75.6673 47.0274 74.3107 46.8849C72.9541 46.7424 71.59 47.0735 70.4498 47.8221C69.3238 48.5601 68.4878 49.6541 67.6398 50.7001C66.8918 51.6221 66.1098 52.5301 65.5618 53.5841C64.2738 56.0621 65.0258 59.1141 67.0898 60.8361Z" fill="#283890"/>
<path d="M74.7283 52.6675C75.4363 52.6675 76.0103 52.0935 76.0103 51.3855C76.0103 50.6775 75.4363 50.1035 74.7283 50.1035C74.0203 50.1035 73.4463 50.6775 73.4463 51.3855C73.4463 52.0935 74.0203 52.6675 74.7283 52.6675Z" fill="white"/>
<path d="M72.2478 55.6997C72.9559 55.6997 73.5298 55.1258 73.5298 54.4177C73.5298 53.7097 72.9559 53.1357 72.2478 53.1357C71.5398 53.1357 70.9658 53.7097 70.9658 54.4177C70.9658 55.1258 71.5398 55.6997 72.2478 55.6997Z" fill="white"/>
<path d="M69.9216 58.5464C70.6297 58.5464 71.2036 57.9725 71.2036 57.2644C71.2036 56.5564 70.6297 55.9824 69.9216 55.9824C69.2136 55.9824 68.6396 56.5564 68.6396 57.2644C68.6396 57.9725 69.2136 58.5464 69.9216 58.5464Z" fill="white"/>
<g opacity="0.46">
<path d="M107 45.2578C106.9 45.7599 106.689 46.2333 106.382 46.6433C106.075 47.0534 105.681 47.3897 105.228 47.6278L94.5358 53.3078C94.1325 53.523 93.6908 53.6565 93.2359 53.7006C92.7809 53.7446 92.3218 53.6984 91.8847 53.5647C91.4477 53.4309 91.0414 53.2121 90.6891 52.9209C90.3368 52.6297 90.0454 52.2719 89.8318 51.8678L81.3098 35.8218C80.878 35.008 80.7869 34.0561 81.0565 33.1752C81.3262 32.2943 81.9344 31.5565 82.7478 31.1238L93.4478 25.4458C95.0578 24.5898 97.2798 25.2458 98.1438 26.8838L106.668 42.9238C107.051 43.6379 107.169 44.465 107 45.2578Z" fill="#283890"/>
</g>
<path d="M103.826 44.0413L93.4002 40.0673C93.2673 40.0158 93.1571 39.9187 93.0894 39.7934C93.0216 39.6681 93.0006 39.5227 93.0302 39.3833L95.4482 28.2613C95.4756 28.143 95.5383 28.0359 95.6279 27.954C95.7176 27.872 95.8299 27.8193 95.9502 27.8026C96.0705 27.7859 96.193 27.8061 96.3015 27.8605C96.4101 27.9149 96.4996 28.001 96.5582 28.1073L104.566 43.1993C104.623 43.3068 104.645 43.429 104.631 43.5496C104.617 43.6703 104.566 43.7838 104.486 43.875C104.406 43.9663 104.3 44.0311 104.182 44.0608C104.064 44.0905 103.94 44.0837 103.826 44.0413Z" fill="white"/>
<g opacity="0.46">
<path d="M119.4 56.4243C119.618 56.5813 119.799 56.7853 119.929 57.0213C120.058 57.2574 120.133 57.5195 120.148 57.7883L120.548 64.1463C120.563 64.3863 120.53 64.6269 120.452 64.8544C120.374 65.0819 120.252 65.2918 120.093 65.472C119.934 65.6522 119.741 65.7992 119.525 65.9046C119.308 66.0101 119.074 66.0718 118.834 66.0863L109.292 66.6743C108.808 66.7033 108.333 66.5394 107.97 66.2185C107.607 65.8976 107.386 65.4458 107.356 64.9623L106.966 58.6003C106.948 58.12 107.116 57.6514 107.434 57.2911C107.752 56.9309 108.197 56.7065 108.676 56.6643L118.216 56.0643C118.64 56.0406 119.06 56.1682 119.4 56.4243Z" fill="#283890"/>
</g>
<path d="M118.132 57.6806L113.956 61.8146C113.903 61.8649 113.834 61.8951 113.761 61.9002C113.688 61.9053 113.616 61.885 113.556 61.8426L108.756 58.2626C108.705 58.224 108.667 58.1705 108.647 58.1095C108.627 58.0485 108.626 57.9829 108.645 57.9214C108.663 57.86 108.7 57.8057 108.75 57.7659C108.801 57.726 108.862 57.7026 108.926 57.6986L117.902 57.1446C117.965 57.143 118.027 57.1603 118.08 57.1942C118.132 57.228 118.174 57.277 118.199 57.3347C118.223 57.3924 118.23 57.4562 118.219 57.5179C118.207 57.5796 118.177 57.6362 118.132 57.6806Z" fill="white"/>
<g opacity="0.46">
<path d="M54.5998 91.3628C53.9737 91.4658 53.3404 91.5193 52.7058 91.5228C46.6298 91.5228 46.8338 85.8888 46.8338 85.8888L51.8678 86.9768C51.6776 86.5108 51.6048 86.0052 51.6557 85.5044C51.7066 85.0037 51.8797 84.5231 52.1598 84.1048C53.3118 82.4208 55.9878 83.2868 55.9878 83.2868L57.6518 82.2148L57.2918 84.2148L59.5218 83.8388L58.3758 85.1648C59.9158 86.6448 61.8778 91.1508 57.1458 93.4928C52.4138 95.8348 50.3718 93.0288 50.3718 93.0288L52.7058 91.5248L54.5998 91.3628Z" fill="#283890"/>
</g>
<path d="M54.5 85.8515C54.902 85.8515 55.228 85.5256 55.228 85.1235C55.228 84.7214 54.902 84.3955 54.5 84.3955C54.0979 84.3955 53.772 84.7214 53.772 85.1235C53.772 85.5256 54.0979 85.8515 54.5 85.8515Z" fill="white"/>
<path d="M67.1899 188.857H150.444" stroke="black" strokeWidth="0.63" stroke-miterlimit="10"/>
</svg>
