<svg width="251" height="251" viewBox="0 0 251 251" fill="none" xmlns="http://www.w3.org/2000/svg">
<path d="M167.232 220.535L162.272 225.216C162.143 225.338 162.04 225.485 161.97 225.649C161.899 225.812 161.863 225.987 161.863 226.165V233.622C161.863 233.947 161.983 234.259 162.202 234.499C162.42 234.739 162.72 234.889 163.042 234.92L172.804 235.869L178.185 230.788C178.315 230.667 178.419 230.52 178.49 230.357C178.561 230.194 178.597 230.018 178.597 229.84V222.337C178.597 222.012 178.476 221.698 178.257 221.458C178.037 221.217 177.736 221.067 177.412 221.037L168.248 220.186C168.064 220.169 167.878 220.191 167.703 220.252C167.527 220.312 167.367 220.408 167.232 220.535Z" fill="#4355B6"/>
<path d="M166.711 219.236L160.891 224.73C160.739 224.874 160.618 225.046 160.536 225.238C160.453 225.43 160.411 225.636 160.411 225.845V234.595C160.411 234.975 160.552 235.342 160.808 235.624C161.064 235.906 161.415 236.082 161.794 236.118L173.25 237.233L179.567 231.269C179.719 231.126 179.84 230.953 179.922 230.761C180.005 230.57 180.047 230.363 180.047 230.154V221.349C180.047 220.968 179.904 220.6 179.647 220.318C179.389 220.036 179.036 219.861 178.656 219.826L167.903 218.822C167.687 218.802 167.468 218.829 167.263 218.9C167.057 218.971 166.869 219.086 166.711 219.236Z" fill="#4355B6"/>
<path d="M197.285 170.621V178.121C197.285 178.299 197.249 178.474 197.178 178.637C197.108 178.801 197.005 178.948 196.876 179.07L191.49 184.15L181.723 183.201C181.441 183.176 181.176 183.055 180.97 182.86C182.584 182.664 183.942 181.914 184.359 181.103C184.999 179.848 184.828 177.659 182.1 177.278C181.572 177.207 181.049 177.1 180.536 176.956V174.444C180.536 174.266 180.572 174.091 180.642 173.928C180.713 173.765 180.816 173.619 180.945 173.498L185.903 168.811C186.037 168.688 186.196 168.593 186.368 168.534C186.541 168.474 186.724 168.451 186.907 168.465L196.071 169.318C196.401 169.341 196.71 169.488 196.935 169.73C197.161 169.972 197.286 170.29 197.285 170.621Z" fill="#4355B6"/>
<path d="M198.74 169.632V178.435C198.74 178.645 198.697 178.852 198.613 179.045C198.53 179.237 198.408 179.411 198.256 179.554L191.943 185.513L180.488 184.401C180.109 184.364 179.757 184.188 179.501 183.905C179.245 183.623 179.104 183.256 179.105 182.875V182.84C179.728 182.939 180.362 182.946 180.987 182.86C182.601 182.664 183.959 181.914 184.376 181.103C185.016 179.848 184.845 177.659 182.117 177.278C181.589 177.207 181.066 177.1 180.553 176.957C179.328 176.583 179.253 176.173 179.253 176.173L179.102 176.269V174.135C179.1 173.927 179.142 173.721 179.224 173.529C179.306 173.338 179.427 173.166 179.579 173.023L185.402 167.527C185.56 167.377 185.748 167.263 185.954 167.192C186.159 167.12 186.378 167.093 186.594 167.112L197.347 168.116C197.726 168.152 198.078 168.327 198.335 168.607C198.592 168.887 198.736 169.252 198.74 169.632Z" fill="#4355B6"/>
<path d="M199.1 193.344L193.239 198.866C193.086 199.01 192.965 199.184 192.881 199.377C192.798 199.57 192.755 199.778 192.755 199.988V208.801C192.754 209.184 192.897 209.554 193.154 209.838C193.412 210.122 193.766 210.3 194.148 210.337L205.694 211.459L212.057 205.455C212.21 205.311 212.331 205.137 212.415 204.944C212.498 204.751 212.541 204.543 212.541 204.333V195.473C212.542 195.088 212.398 194.717 212.139 194.433C211.88 194.149 211.524 193.972 211.141 193.937L200.312 192.933C200.093 192.91 199.871 192.936 199.662 193.007C199.452 193.078 199.261 193.193 199.1 193.344Z" fill="#4355B6"/>
<path d="M198.485 191.809L191.605 198.302C191.426 198.471 191.284 198.675 191.186 198.901C191.089 199.127 191.038 199.371 191.038 199.617V209.958C191.038 210.408 191.206 210.842 191.509 211.175C191.811 211.508 192.227 211.717 192.675 211.761L206.214 213.076L213.678 206.028C213.858 205.859 214.001 205.655 214.099 205.429C214.196 205.203 214.246 204.959 214.246 204.712V194.306C214.242 193.856 214.072 193.423 213.767 193.093C213.462 192.762 213.045 192.556 212.596 192.516L199.888 191.334C199.634 191.31 199.378 191.34 199.136 191.422C198.895 191.504 198.673 191.635 198.485 191.809Z" fill="#4355B6"/>
<path d="M214.989 198.728L208.89 204.486C208.732 204.637 208.605 204.818 208.519 205.018C208.433 205.219 208.388 205.435 208.388 205.654V214.823C208.388 215.222 208.537 215.607 208.805 215.902C209.073 216.198 209.442 216.383 209.839 216.421L221.844 217.589L228.463 211.344C228.622 211.194 228.748 211.013 228.834 210.812C228.921 210.611 228.965 210.395 228.965 210.177V200.942C228.964 200.542 228.815 200.157 228.545 199.861C228.275 199.565 227.905 199.381 227.507 199.343L216.239 198.292C216.012 198.271 215.783 198.299 215.567 198.375C215.352 198.45 215.155 198.571 214.989 198.728Z" fill="#4355B6"/>
<path d="M214.355 197.127L207.196 203.884C207.01 204.06 206.861 204.273 206.76 204.509C206.659 204.744 206.606 204.998 206.606 205.255V216.018C206.606 216.485 206.78 216.936 207.094 217.282C207.408 217.628 207.84 217.845 208.306 217.89L222.387 219.26L230.168 211.926C230.354 211.75 230.503 211.537 230.604 211.302C230.706 211.066 230.758 210.812 230.758 210.556V199.725C230.757 199.256 230.582 198.804 230.266 198.457C229.95 198.11 229.516 197.894 229.048 197.85L215.823 196.62C215.556 196.596 215.288 196.628 215.034 196.716C214.781 196.803 214.55 196.943 214.355 197.127Z" fill="#4355B6"/>
<path d="M197.374 205.38L188.822 213.452C188.599 213.662 188.421 213.916 188.3 214.197C188.178 214.479 188.116 214.782 188.117 215.089V227.945C188.119 228.503 188.327 229.041 188.702 229.454C189.077 229.868 189.592 230.128 190.147 230.184L206.979 231.82L216.266 223.058C216.489 222.847 216.666 222.594 216.787 222.312C216.908 222.031 216.971 221.728 216.972 221.422V208.485C216.969 207.925 216.759 207.386 216.381 206.972C216.004 206.558 215.486 206.3 214.929 206.246L199.131 204.775C198.812 204.746 198.49 204.784 198.187 204.889C197.884 204.993 197.607 205.16 197.374 205.38Z" fill="#4355B6"/>
<path d="M196.478 203.138L186.438 212.611C186.177 212.857 185.968 213.155 185.826 213.485C185.683 213.815 185.61 214.171 185.61 214.531V229.618C185.609 230.274 185.853 230.907 186.294 231.393C186.735 231.879 187.341 232.183 187.994 232.246L207.746 234.166L218.639 223.875C218.9 223.629 219.109 223.331 219.251 223.001C219.394 222.671 219.467 222.315 219.467 221.955V206.782C219.468 206.125 219.222 205.491 218.779 205.004C218.336 204.518 217.728 204.215 217.073 204.154L198.541 202.43C198.167 202.394 197.789 202.439 197.433 202.561C197.077 202.683 196.752 202.88 196.478 203.138Z" fill="#4355B6"/>
<path d="M137.046 94.7479C144.074 89.4167 154.719 84.6301 168.961 87.1125" stroke="#CCDDE2" strokeWidth="1.15209" stroke-miterlimit="10"/>
<path d="M140.616 98.9177C146.871 94.5729 155.39 91.2371 166.499 91.9524" stroke="white" strokeWidth="1.15209" strokeLinecap="round" strokeLinejoin="round"/>
<path d="M189.706 96.667C196.573 103.01 200.183 111.95 201.503 121.062C202.378 127.122 202.385 133.275 201.526 139.337C201.46 139.693 201.416 140.053 201.393 140.414C201.837 140.213 202.297 140.05 202.768 139.924C208.446 138.466 214.485 138.23 219.979 140.474C224.55 142.339 228.44 145.609 231.412 149.51C235.385 154.757 237.788 161.024 238.342 167.582C239.346 180.132 233.345 190.252 224.344 197.391L224.241 197.474" stroke="#CCDDE2" strokeWidth="1.15209" strokeLinejoin="round"/>
<path d="M188.609 102.706C197.509 113.165 198.074 127.229 197.288 140.632C197.271 140.926 197.16 141.704 197.058 142.495" stroke="white" strokeWidth="1.15209" strokeLinecap="round" strokeLinejoin="round"/>
<path d="M200.682 144.01C207.248 143.357 214.537 143.164 220.122 146.427C225.644 149.655 229.755 154.873 232.122 160.781C234.81 167.488 235.242 175.339 232.237 182.021C228.866 189.501 223.284 194.855 216.967 199.867C216.949 199.88 217.72 200.05 218.523 200.231" stroke="white" strokeWidth="1.15209" strokeLinecap="round" strokeLinejoin="round"/>
<path d="M86.4199 221.11C85.0141 221.616 83.542 221.915 82.05 221.996C60.8581 223.299 40.9713 211.705 26.9655 198.726C26.3255 198.133 25.7105 197.526 25.1182 196.911" stroke="black" strokeWidth="1.15209" stroke-miterlimit="10"/>
<path d="M106.806 212.786C108.031 214.658 110.904 213.91 110.904 213.91C126.933 210.622 122.257 189.4 108.698 179.551" stroke="black" strokeWidth="1.15209" stroke-miterlimit="10"/>
<path d="M125.475 162.147C119.664 167.719 114.476 171.1 109.614 173.103L111.622 159.065C89.7223 145.968 83.894 160.571 83.894 160.571C83.0557 161.941 82.6666 178.201 82.5562 183.751C82.5286 183.751 81.8333 183.751 81.8032 183.751C67.9982 183.013 55.521 170.385 55.521 170.385C62.4963 152.87 87.398 131.229 87.398 131.229C104.682 119.108 117.874 123.185 117.874 123.185C113.811 123.478 119.348 134.731 119.348 134.731C127.508 141.816 130.52 131.234 130.52 131.234C138.416 150.134 125.475 162.147 125.475 162.147Z" fill="#353642"/>
<path d="M139.754 153.971C139.754 153.971 138.321 172.384 125.864 171.774C125.864 171.774 121.193 166.722 121.311 162.879C121.429 159.036 131.853 135.038 131.853 135.038C131.853 135.038 138.61 151.89 139.754 153.971Z" fill="#353642"/>
<path d="M26.2615 197.995V198.058L27.3258 199.062C27.3258 199.062 26.884 199.471 26.2615 200.066C25.4508 200.819 24.3338 201.858 23.5005 202.651C22.0573 204.022 14.6779 211.399 12.7075 204.69C13.0966 202.343 14.5875 197.516 20.3028 191.653C28.4302 183.299 27.2981 184.336 29.3388 184.474C30.28 184.534 31.4999 185.086 32.544 185.666C29.9035 186.766 25.9001 189.815 26.2615 197.995Z" fill="#4355B6"/>
<path d="M34.7503 187.056C34.7503 187.056 26.761 187.809 26.2615 197.997V198.06C26.2289 198.688 26.2289 199.348 26.2615 200.051C25.4508 200.804 24.3338 201.843 23.5005 202.636C22.0573 204.006 14.6779 211.383 12.7075 204.674C13.0966 202.327 14.5875 197.5 20.3028 191.637C28.4302 183.284 27.2981 184.32 29.3388 184.458C30.28 184.519 31.4999 185.071 32.544 185.651C33.3032 186.081 34.0396 186.55 34.7503 187.056Z" fill="#4355B6"/>
<path d="M109.561 173.525C118.597 167.86 133.095 160.606 133.06 144.321C133.06 140.453 132.661 137.293 131.805 134.301L131.722 134.015C131.423 133.046 131.02 132.113 130.52 131.231" stroke="black" strokeWidth="1.15209" stroke-miterlimit="10"/>
<path d="M65.9756 201.716C63.8848 199.936 61.9973 198.219 60.7423 197.034L60.7222 197.014C59.7333 196.093 59.1409 195.508 59.1409 195.508C58.3 194.361 57.5521 193.249 56.8819 192.18C56.8687 192.164 56.8593 192.145 56.8543 192.125C51.9799 184.243 51.6862 177.963 56.2268 168.724C56.2531 168.657 56.2833 168.592 56.3171 168.528C56.8191 167.524 57.3739 166.475 57.9863 165.391C67.075 149.327 93.7412 119.395 116.745 123.18" stroke="black" strokeWidth="1.15209" stroke-miterlimit="10"/>
<path d="M26.9726 198.718C22.2036 204.637 18.8578 206.737 16.5963 207.202C14.3347 207.666 12.2514 205.661 12.5803 203.341C13.6294 196.012 22.1584 187.245 26.3551 183.324C26.9979 182.719 27.8228 182.345 28.701 182.258C29.5793 182.172 30.4614 182.379 31.2095 182.847L33.3104 184.155C39.5176 188.025 45.9959 191.8 52.5093 195.279C58.4806 198.472 65.0418 202.576 72.1099 201.647" stroke="black" strokeWidth="1.15209" stroke-miterlimit="10"/>
<path d="M112.513 143.753C112.594 146.666 112.519 149.582 112.289 152.488C111.494 163.002 109.345 173.373 108.163 183.845C107.41 190.547 106.948 197.279 106.858 204.023C106.782 209.686 106.767 214.005 106.936 219.668C107.043 223.312 109.104 225.639 112.242 227.198C114.885 228.508 116.727 228.242 118.374 230.885C121.76 236.332 115.111 236.718 112.405 236C104.815 233.992 93.6476 232.891 89.3129 225.343C85.8566 219.319 85.4173 215.381 84.5439 208.649C83.5901 201.355 82.7869 194.031 82.6162 186.671C82.3526 174.822 83.2713 155.761 87.5182 144.554" stroke="black" strokeWidth="1.15209" stroke-miterlimit="10"/>
<path d="M207.325 199.952L207.285 199.992L206.344 199.897L206.379 199.864L207.325 199.952Z" fill="#4355B6"/>
<path d="M192.394 198.673L200.127 199.438L192.394 198.736V198.673Z" fill="#4355B6"/>
<path d="M207.326 199.954L207.286 199.994L206.345 199.899L206.242 199.994L205.792 199.954L205.895 199.858L205.928 199.823L206.38 199.866L207.326 199.954Z" fill="#4355B6"/>
<path d="M207.327 199.954L207.287 199.994L206.346 199.899L205.896 199.858L205.929 199.823L206.381 199.866L207.327 199.954Z" fill="#4355B6"/>
<path d="M187.58 213.383L199.013 214.5L187.58 213.473V213.383Z" fill="#4355B6"/>
<path d="M209.663 215.26L209.602 215.32L208.209 215.18L208.059 215.32L207.394 215.26L207.544 215.12L207.594 215.069L208.262 215.13L209.663 215.26Z" fill="#4355B6"/>
<path d="M209.662 215.26L209.602 215.32L208.209 215.18L207.544 215.12L207.594 215.069L208.262 215.13L209.662 215.26Z" fill="#4355B6"/>
<path d="M131.718 134.014C131.718 134.014 139.102 158.647 147.739 164.385C155.877 169.789 166.803 167.444 175.384 164.493C177.754 163.677 180.136 162.881 182.663 162.919C186.22 162.969 193.469 163.757 194.41 167.896" stroke="black" strokeWidth="1.15209" stroke-miterlimit="10"/>
<path d="M122.011 165.271C134.754 191.076 157.35 185.928 168.981 181.264C170.035 180.835 171.177 180.672 172.309 180.787C173.434 180.91 174.317 181.387 175.364 181.791C177.143 182.494 179.154 182.999 181.084 182.868C183.014 182.738 185.366 181.267 184.553 178.99C183.905 177.175 181.887 177.306 180.341 176.957C178.795 176.608 178.423 174.354 179.869 173.624C179.887 173.618 179.903 173.609 179.917 173.596" stroke="black" strokeWidth="1.15209" stroke-miterlimit="10"/>
<path d="M180.047 219.96L173.25 226.383L160.411 225.188L167.216 218.768L180.047 219.96Z" stroke="black" strokeWidth="1.15209" strokeLinecap="square" strokeLinejoin="round"/>
<path d="M173.25 226.381V237.235L160.411 235.987V225.187L173.25 226.381Z" stroke="black" strokeWidth="1.15209" strokeLinecap="square" strokeLinejoin="round"/>
<path d="M180.048 219.96V230.821L173.251 237.236V226.383L180.048 219.96Z" stroke="black" strokeWidth="1.15209" strokeLinecap="square" strokeLinejoin="round"/>
<path d="M219.572 204.484L207.941 215.475L185.979 213.43L191.119 208.575V211.314L206.242 212.787L214.246 205.227V203.984L219.572 204.484Z" stroke="black" strokeWidth="1.15209" strokeLinecap="square" strokeLinejoin="round"/>
<path d="M207.941 215.472V234.039L185.979 231.905V213.432L207.941 215.472Z" stroke="black" strokeWidth="1.15209" strokeLinecap="square" strokeLinejoin="round"/>
<path d="M219.57 204.482V223.061L207.941 234.035V215.469L219.57 204.482Z" stroke="black" strokeWidth="1.15209" strokeLinecap="square" strokeLinejoin="round"/>
<path d="M214.246 192.434L206.241 199.994L191.119 198.591L199.131 191.028L214.246 192.434Z" stroke="black" strokeWidth="1.15209" strokeLinecap="square" strokeLinejoin="round"/>
<path d="M206.241 202.771V199.995L191.119 198.592V210.263" stroke="black" strokeWidth="1.15209" strokeLinecap="square" strokeLinejoin="round"/>
<path d="M214.246 192.435V205.226L206.242 212.786V199.995L214.246 192.435Z" stroke="black" strokeWidth="1.15209" strokeLinecap="square" strokeLinejoin="round"/>
<path d="M214.47 196.937L214.814 196.613L230.788 198.099L222.327 206.099L219.955 205.875" stroke="black" strokeWidth="1.15209" strokeLinecap="square" strokeLinejoin="round"/>
<path d="M219.814 205.86L222.327 206.099V219.605L219.573 219.339" stroke="black" strokeWidth="1.15209" strokeLinecap="square" strokeLinejoin="round"/>
<path d="M230.784 198.097V211.616L222.323 219.602V206.091L230.784 198.097Z" stroke="black" strokeWidth="1.15209" strokeLinecap="square" strokeLinejoin="round"/>
<path d="M198.738 168.295L191.941 174.718L179.102 173.524L185.907 167.101L198.738 168.295Z" stroke="black" strokeWidth="1.15209" strokeLinecap="square" strokeLinejoin="round"/>
<path d="M179.099 182.805V184.326L191.938 185.573V174.72L179.917 173.601L179.099 173.525V174.467V175.443" stroke="black" strokeWidth="1.15209" strokeLinecap="square" strokeLinejoin="round"/>
<path d="M198.737 168.296V179.157L191.939 185.572V174.719L198.737 168.296Z" stroke="black" strokeWidth="1.15209" strokeLinecap="square" strokeLinejoin="round"/>
<path d="M133.06 121.758C134.227 123.322 136.275 123.633 137.633 122.556" stroke="black" strokeWidth="1.15209" stroke-miterlimit="10"/>
<path d="M151.617 106.172C151.114 107.423 150.23 108.484 149.09 109.205C147.95 109.926 146.612 110.27 145.266 110.188C145.237 109.637 145.074 109.102 144.792 108.629C143.585 106.661 142.45 109.836 138.078 106.767C132.021 102.5 129.248 104.006 129.248 104.006C128.997 104.136 128.798 105.647 128.73 105.911C128.316 107.442 127.905 108.965 127.475 110.494C127.224 111.428 126.973 112.354 126.722 113.28C126.658 113.108 126.583 112.941 126.499 112.778C126.223 110.572 125.543 107.916 123.073 108.639C122.572 108.795 122.116 109.066 121.74 109.432C119.91 111.204 120.774 113.315 122.149 114.989C122.481 115.495 122.866 115.963 123.299 116.385C122.955 116.887 121.554 118.895 121.554 118.895C121.409 119.096 118.309 114.287 118.098 113.78C117.854 112.584 117.813 111.357 117.975 110.148C118.67 105.178 121.567 99.7135 126.007 97.4821C127.111 96.9299 126.896 96.202 127.106 95.2532C127.113 95.1978 127.138 95.1462 127.177 95.1064C127.216 95.0667 127.267 95.041 127.322 95.0335C127.377 95.026 127.433 95.0372 127.482 95.0651C127.53 95.0931 127.567 95.1363 127.588 95.1879C128.643 96.7994 131.775 97.1357 131.775 97.1357C142.53 96.0539 145.871 101.435 147.955 102.62C148.795 103.085 149.769 103.25 150.716 103.089C150.722 103.396 150.812 103.695 150.977 103.953C151.142 104.212 151.374 104.42 151.649 104.555L151.519 105.057C151.424 105.429 151.459 105.822 151.617 106.172Z" fill="#4355B6"/>
<path d="M145.259 110.189C146.603 110.271 147.938 109.929 149.077 109.211C150.215 108.492 151.099 107.434 151.604 106.186C151.801 105.709 151.954 105.215 152.061 104.71L151.98 104.688C151.865 104.659 151.754 104.616 151.649 104.56C151.374 104.424 151.142 104.216 150.977 103.958C150.812 103.699 150.722 103.4 150.715 103.094C150.707 102.925 150.726 102.755 150.771 102.592L151.421 100.187C151.421 100.187 149.245 101.342 147.204 100.162C145.163 98.9823 142.252 93.616 131.025 94.6777C131.025 94.6777 128.557 94.4493 127.511 92.8077C127.489 92.7572 127.451 92.7153 127.403 92.6884C127.355 92.6614 127.299 92.651 127.245 92.6587C127.19 92.6664 127.14 92.6918 127.101 92.731C127.063 92.7701 127.038 92.8209 127.031 92.8755C126.82 93.8243 126.358 94.4468 125.257 94.999C120.806 97.2329 117.907 102.697 117.225 107.664C116.968 109.739 117.267 111.844 118.093 113.764C118.304 114.266 121.404 119.08 121.549 118.879C121.549 118.879 122.95 116.871 123.294 116.369L123.377 116.259L123.269 116.161C122.867 115.791 122.492 115.394 122.144 114.974C120.769 113.299 119.905 111.188 121.735 109.416C122.111 109.051 122.567 108.779 123.068 108.623C125.538 107.9 126.218 110.556 126.494 112.762C126.547 113.184 126.555 113.609 126.517 114.032L126.717 113.279C126.968 112.353 127.219 111.427 127.47 110.493C127.89 108.965 128.301 107.441 128.725 105.91C128.793 105.646 129.001 104.135 129.242 104.005C129.242 104.005 132.016 102.514 138.073 106.766C142.445 109.836 143.58 106.66 144.787 108.628C145.069 109.102 145.232 109.637 145.261 110.187C145.267 110.364 145.262 110.541 145.246 110.717C145.25 110.74 145.25 110.764 145.246 110.787C145.211 111.171 145.161 111.555 145.111 111.929C144.609 115.538 143.63 119.241 141.705 122.371C139.37 126.163 134.21 129.471 129.767 126.858C128.384 126.043 127.199 124.883 126.14 123.683" stroke="black" strokeWidth="1.15209" stroke-miterlimit="10"/>
<path d="M141.994 117.907C142.271 117.367 142.134 116.744 141.688 116.514C141.241 116.285 140.655 116.537 140.378 117.078C140.1 117.618 140.237 118.241 140.684 118.471C141.13 118.7 141.717 118.448 141.994 117.907Z" fill="black"/>
<path d="M134.99 116.61C135.268 116.069 135.13 115.446 134.684 115.217C134.238 114.987 133.651 115.24 133.374 115.78C133.096 116.32 133.233 116.944 133.68 117.173C134.126 117.402 134.713 117.15 134.99 116.61Z" fill="black"/>
<path d="M136.183 118.801C136.183 118.801 138.324 120.488 138.675 119.13C138.785 118.71 139.993 114.634 139.993 114.634C139.993 114.634 142.192 112.917 144.867 114.84" stroke="black" strokeWidth="1.15209" stroke-miterlimit="10"/>
<path d="M137.595 113.073C137.595 113.073 134.101 110.609 131.189 112.953" stroke="black" strokeWidth="1.15209" stroke-miterlimit="10"/>
<path d="M120.643 117.735L118.831 123.579L116.76 123.19C115.457 125.363 117.137 132.389 119.358 134.736C125.696 141.452 129.594 133.699 129.594 133.699L130.52 131.224L131.863 127.645" stroke="black" strokeWidth="1.15209" stroke-miterlimit="10"/>
<path d="M175.537 99.832C176.009 100.256 176.387 100.775 176.646 101.354C176.906 101.933 177.041 102.561 177.043 103.195V103.913C177.045 104.421 177.153 104.922 177.36 105.385C177.567 105.848 177.869 106.263 178.246 106.603C178.623 106.943 179.067 107.2 179.549 107.358C180.031 107.516 180.541 107.571 181.046 107.52C182.921 107.329 184.292 105.625 184.292 103.73V103.193C184.29 102.563 184.42 101.94 184.674 101.363C184.928 100.786 185.299 100.269 185.765 99.8446" stroke="#CCDDE2" strokeWidth="1.15209" strokeLinejoin="round"/>
<path d="M175.537 99.832C176.009 100.256 176.387 100.775 176.646 101.354C176.906 101.933 177.041 102.561 177.043 103.195V103.913C177.045 104.421 177.153 104.922 177.36 105.385C177.567 105.848 177.869 106.263 178.246 106.603C178.623 106.943 179.067 107.2 179.549 107.358C180.031 107.516 180.541 107.571 181.046 107.52C182.921 107.329 184.292 105.625 184.292 103.73V103.193C184.29 102.563 184.42 101.94 184.674 101.363C184.928 100.786 185.299 100.269 185.765 99.8446" stroke="#CCDDE2" strokeWidth="1.15209" strokeLinejoin="round"/>
<path d="M175.538 99.8324C175.297 99.623 175.037 99.438 174.76 99.2802C172.637 98.0616 170.944 96.2161 169.911 93.9969C168.879 91.7776 168.559 89.2934 168.995 86.885C169.431 84.4766 170.602 82.2622 172.346 80.5455C174.091 78.8288 176.324 77.694 178.739 77.2968C181.154 76.8996 183.633 77.2595 185.835 78.3271C188.037 79.3947 189.855 81.1177 191.04 83.2596C192.224 85.4015 192.716 87.8574 192.449 90.2903C192.182 92.7232 191.169 95.0139 189.549 96.848C189.523 96.8723 189.501 96.8992 189.481 96.9283C188.624 97.8688 187.626 98.6692 186.521 99.3002C186.249 99.4514 185.996 99.6352 185.768 99.8474" stroke="#CCDDE2" strokeWidth="1.15209" strokeLinejoin="round"/>
<path d="M179.397 99.058C178.632 97.6675 177.342 95.8251 176.433 94.5124C175.445 93.1201 174.638 91.6078 174.031 90.012C173.951 89.8397 173.919 89.6486 173.941 89.4598C173.953 89.3661 174.001 89.2809 174.075 89.2219C174.149 89.163 174.243 89.1349 174.337 89.1435C174.505 89.1761 174.588 89.3518 174.676 89.5049C175.037 90.222 175.551 90.851 176.182 91.3473C176.536 91.6209 177.038 91.8493 177.407 91.5983C177.519 91.5002 177.609 91.3794 177.671 91.244C177.733 91.1086 177.765 90.9615 177.766 90.8126C177.877 89.7556 177.6 88.6943 176.988 87.8258C176.737 87.4844 176.3 87.1531 175.946 87.3765C175.592 87.5998 175.695 88.1521 175.906 88.5235C176.281 89.2121 176.792 89.8172 177.408 90.3018C178.024 90.7864 178.733 91.1404 179.49 91.3423C179.862 91.4667 180.263 91.4711 180.637 91.3548C180.845 91.2602 181.026 91.1163 181.166 90.9357C181.305 90.755 181.399 90.5431 181.438 90.3182C181.513 89.8665 181.474 89.4033 181.325 88.9703C181.119 88.2951 180.72 87.6049 180.05 87.379C179.84 87.2974 179.607 87.2974 179.397 87.379C179.258 87.4536 179.142 87.5659 179.064 87.7031C178.985 87.8402 178.947 87.9966 178.953 88.1546C178.969 88.4706 179.066 88.7773 179.234 89.0456C179.623 89.7244 180.171 90.2987 180.831 90.7193C181.49 91.1398 182.242 91.3941 183.022 91.4602C183.542 91.5344 184.072 91.4078 184.503 91.1063C184.682 90.9397 184.827 90.7388 184.928 90.5156C185.03 90.2924 185.085 90.0512 185.092 89.8061C185.149 89.0715 184.942 88.3406 184.508 87.7454C184.42 87.6275 184.287 87.4944 184.144 87.5421C184.001 87.5898 183.96 87.7504 183.943 87.8935C183.877 88.4557 183.925 89.0253 184.081 89.5691C184.238 90.113 184.502 90.6201 184.857 91.0611C185.248 91.5405 185.843 91.9572 186.445 91.8141C186.673 91.7445 186.878 91.6144 187.037 91.4375C187.197 91.2607 187.305 91.0439 187.351 90.8101C187.438 90.3415 187.391 89.8578 187.216 89.4146C187 89.5471 186.815 89.7247 186.675 89.9353C186.534 90.1458 186.44 90.3843 186.4 90.6344C186.29 91.1364 186.297 91.6384 186.212 92.1404C185.74 94.9567 182.638 96.2142 182.035 98.9174" stroke="#CCDDE2" strokeWidth="1.15209" strokeLinejoin="round"/>
<path d="M180.652 72.8971L180.534 65.7637" stroke="#CCDDE2" strokeWidth="1.15209" strokeLinejoin="round"/>
<path d="M167.045 79.5308L162.108 74.3828" stroke="#CCDDE2" strokeWidth="1.15209" strokeLinejoin="round"/>
<path d="M194.306 79.8541L199.354 74.8115" stroke="#CCDDE2" strokeWidth="1.15209" strokeLinejoin="round"/>
<path d="M197.003 147.248C198.431 147.248 199.589 146.09 199.589 144.662C199.589 143.235 198.431 142.077 197.003 142.077C195.575 142.077 194.418 143.235 194.418 144.662C194.418 146.09 195.575 147.248 197.003 147.248Z" fill="#4355B6"/>
</svg>
