<?xml version="1.0" standalone="no"?>
<!DOCTYPE svg PUBLIC "-//W3C//DTD SVG 20010904//EN"
 "http://www.w3.org/TR/2001/REC-SVG-20010904/DTD/svg10.dtd">
<svg version="1.0" xmlns="http://www.w3.org/2000/svg"
 width="338.000000pt" height="290.000000pt" viewBox="0 0 338.000000 290.000000"
 preserveAspectRatio="xMidYMid meet">

<g transform="translate(0.000000,290.000000) scale(0.100000,-0.100000)"
fill="#000000" stroke="none">
<path d="M1665 2345 c-11 -14 -30 -25 -41 -25 -12 0 -24 -7 -28 -15 -3 -8 -14
-15 -25 -15 -10 0 -21 -7 -25 -15 -3 -8 -12 -15 -21 -15 -8 0 -15 -4 -15 -10
0 -5 -11 -10 -25 -10 -16 0 -25 -6 -25 -15 0 -9 -9 -15 -25 -15 -14 0 -25 -4
-25 -10 0 -5 -11 -12 -25 -16 -14 -3 -25 -10 -25 -15 0 -5 -7 -9 -15 -9 -8 0
-15 -4 -15 -10 0 -5 -11 -12 -25 -16 -14 -3 -25 -10 -25 -14 0 -4 -11 -11 -25
-14 -14 -4 -25 -11 -25 -16 0 -6 -7 -10 -15 -10 -8 0 -15 -4 -15 -9 0 -5 -11
-12 -25 -15 -14 -4 -25 -11 -25 -16 0 -6 -11 -10 -25 -10 -16 0 -25 -6 -25
-15 0 -8 -9 -15 -20 -15 -11 0 -20 -4 -20 -10 0 -5 -9 -10 -20 -10 -11 0 -23
-7 -26 -15 -4 -8 -17 -15 -30 -15 -15 0 -24 -6 -24 -15 0 -9 -9 -15 -21 -15
-12 0 -32 -11 -45 -25 -13 -14 -32 -25 -44 -25 -11 0 -20 -7 -20 -15 0 -9 -9
-15 -25 -15 -14 0 -25 -4 -25 -10 0 -5 -7 -10 -15 -10 -8 0 -15 -4 -15 -9 0
-5 -10 -13 -22 -17 -12 -3 -28 -13 -36 -20 -7 -8 -20 -14 -28 -14 -8 0 -14 -4
-14 -9 0 -5 -11 -12 -25 -15 -14 -4 -25 -11 -25 -16 0 -6 -7 -10 -16 -10 -8 0
-22 -6 -29 -12 -36 -32 -45 -38 -64 -38 -10 0 -21 -7 -25 -15 -3 -8 -12 -15
-21 -15 -8 0 -15 -4 -15 -10 0 -5 -9 -10 -20 -10 -11 0 -23 -7 -26 -15 -4 -8
-17 -15 -30 -15 -15 0 -24 -6 -24 -15 0 -9 -9 -15 -25 -15 -14 0 -25 -4 -25
-10 0 -5 -7 -10 -15 -10 -8 0 -15 -7 -15 -15 0 -9 -9 -15 -25 -15 -14 0 -25
-4 -25 -10 0 -5 -11 -12 -25 -16 -14 -3 -25 -10 -25 -15 0 -5 -7 -9 -15 -9
-22 0 -19 -36 5 -60 24 -24 75 -27 84 -5 3 8 17 15 31 15 14 0 25 5 25 10 0 6
11 10 24 10 13 0 26 7 30 15 3 9 19 15 41 15 19 0 35 4 35 10 0 5 11 12 25 16
14 3 25 10 25 15 0 5 14 9 30 9 17 0 30 5 30 10 0 16 37 11 44 -6 3 -9 6 -42
6 -75 0 -32 4 -59 9 -59 5 0 12 -22 16 -50 4 -27 11 -50 16 -50 5 0 9 -12 9
-26 0 -14 7 -32 15 -40 8 -9 15 -26 15 -40 0 -13 4 -24 9 -24 5 0 12 -14 16
-30 4 -17 11 -30 16 -30 5 0 9 -11 9 -25 0 -16 6 -25 15 -25 8 0 15 -7 15 -15
0 -8 4 -15 9 -15 5 0 12 -11 15 -25 4 -14 11 -25 16 -25 6 0 10 -7 10 -15 0
-8 5 -15 11 -15 11 0 39 -25 39 -35 0 -11 138 -145 149 -145 6 0 11 -7 11 -15
0 -8 7 -15 15 -15 8 0 15 -4 15 -9 0 -5 11 -12 25 -15 14 -4 25 -11 25 -16 0
-6 7 -10 15 -10 8 0 15 -4 15 -10 0 -5 11 -12 25 -16 14 -3 25 -10 25 -15 0
-5 11 -9 25 -9 16 0 25 -6 25 -15 0 -9 10 -15 26 -15 14 0 32 -7 40 -15 9 -8
26 -15 40 -15 13 0 24 -4 24 -10 0 -5 16 -10 36 -10 19 0 42 -7 50 -15 11 -10
36 -15 85 -15 39 0 69 -4 69 -10 0 -6 50 -10 130 -10 80 0 130 4 130 10 0 6
30 10 69 10 49 0 74 5 85 15 8 8 31 15 50 15 20 0 36 4 36 9 0 5 18 11 40 15
22 3 40 11 40 16 0 6 11 10 25 10 14 0 25 4 25 10 0 5 11 12 25 16 14 3 25 10
25 14 0 4 11 11 25 14 14 4 25 11 25 16 0 6 7 10 15 10 8 0 15 4 15 9 0 5 11
12 25 15 14 4 25 11 25 16 0 6 7 10 15 10 8 0 15 7 15 15 0 8 5 15 11 15 14 0
169 156 169 170 0 5 7 10 15 10 8 0 15 7 15 15 0 8 4 15 10 15 5 0 12 11 16
25 3 14 10 25 15 25 5 0 9 7 9 15 0 8 7 15 15 15 9 0 15 9 15 25 0 14 4 25 9
25 5 0 12 14 16 30 4 17 11 30 16 30 5 0 9 9 9 21 0 11 7 27 15 35 8 9 15 29
15 45 0 16 4 29 10 29 5 0 12 23 16 50 4 28 10 50 15 50 5 0 9 29 9 64 0 45 5
69 16 80 20 20 34 20 34 1 0 -10 10 -15 30 -15 17 0 30 -4 30 -9 0 -5 11 -12
25 -15 14 -4 25 -11 25 -16 0 -6 16 -10 35 -10 22 0 38 -6 41 -15 4 -8 17 -15
30 -15 13 0 24 -4 24 -9 0 -5 18 -11 40 -15 22 -3 40 -11 40 -16 0 -15 50 -12
66 4 19 20 18 66 -1 66 -8 0 -15 4 -15 9 0 5 -11 12 -25 15 -14 4 -25 11 -25
16 0 6 -11 10 -25 10 -16 0 -25 6 -25 15 0 8 -7 15 -15 15 -8 0 -15 4 -15 9 0
5 -11 12 -25 15 -14 4 -25 11 -25 16 0 6 -11 10 -24 10 -13 0 -26 7 -30 15 -3
8 -15 15 -26 15 -11 0 -20 5 -20 10 0 6 -7 10 -15 10 -9 0 -18 7 -21 15 -4 8
-15 15 -25 15 -10 0 -19 4 -19 9 0 5 -11 12 -25 15 -14 4 -25 11 -25 16 0 6
-9 10 -20 10 -11 0 -20 4 -20 10 0 5 -11 12 -25 16 -14 3 -25 10 -25 15 0 5
-6 9 -14 9 -8 0 -21 6 -28 14 -8 7 -24 17 -36 20 -12 4 -22 12 -22 17 0 5 -7
9 -15 9 -8 0 -15 5 -15 10 0 6 -11 10 -25 10 -16 0 -25 6 -25 15 0 8 -9 15
-20 15 -12 0 -31 11 -44 25 -13 14 -33 25 -45 25 -12 0 -21 6 -21 15 0 9 -9
15 -24 15 -13 0 -26 7 -30 15 -3 8 -12 15 -21 15 -8 0 -15 5 -15 10 0 6 -9 10
-20 10 -11 0 -23 7 -26 15 -4 8 -17 15 -30 15 -13 0 -24 4 -24 10 0 5 -11 12
-25 16 -14 3 -25 10 -25 15 0 5 -7 9 -15 9 -8 0 -15 4 -15 10 0 5 -11 12 -25
16 -14 3 -25 10 -25 14 0 4 -11 11 -25 14 -14 4 -25 11 -25 16 0 6 -7 10 -15
10 -8 0 -15 4 -15 9 0 5 -11 12 -25 15 -14 4 -25 11 -25 16 0 6 -11 10 -25 10
-16 0 -25 6 -25 15 0 9 -9 15 -25 15 -14 0 -25 5 -25 10 0 6 -7 10 -15 10 -9
0 -18 7 -21 15 -4 8 -15 15 -25 15 -11 0 -22 7 -25 15 -4 8 -15 15 -26 15 -12
0 -31 11 -44 25 -29 31 -43 31 -69 0z m55 -355 c0 -5 14 -10 30 -10 20 0 30
-5 30 -15 0 -10 10 -15 34 -15 21 0 36 -6 40 -15 3 -8 17 -15 31 -15 14 0 25
-4 25 -10 0 -5 10 -10 23 -10 12 0 30 -9 40 -20 18 -21 23 -60 8 -60 -5 0 -12
-11 -15 -25 -4 -14 -11 -25 -16 -25 -6 0 -10 -7 -10 -15 0 -8 -7 -15 -15 -15
-8 0 -15 -5 -15 -11 0 -14 -25 -39 -39 -39 -6 0 -11 -7 -11 -15 0 -9 -10 -15
-26 -15 -14 0 -32 -7 -40 -15 -11 -11 -37 -15 -94 -15 -57 0 -83 4 -94 15 -8
8 -26 15 -40 15 -16 0 -26 6 -26 15 0 8 -5 15 -11 15 -14 0 -39 25 -39 39 0 6
-7 11 -15 11 -8 0 -15 7 -15 15 0 8 -4 15 -10 15 -5 0 -12 11 -16 25 -3 14
-10 25 -15 25 -15 0 -10 39 8 60 10 11 28 20 40 20 13 0 23 5 23 10 0 6 11 10
25 10 14 0 28 7 31 15 4 9 19 15 40 15 24 0 34 5 34 15 0 10 10 15 30 15 17 0
30 5 30 10 0 6 9 10 20 10 11 0 20 -4 20 -10z m-490 -215 c0 -8 5 -15 10 -15
6 0 10 -11 10 -24 0 -14 7 -31 15 -40 8 -8 15 -19 15 -25 0 -6 4 -11 10 -11 5
0 12 -11 16 -25 3 -14 10 -25 15 -25 5 0 9 -7 9 -15 0 -8 5 -15 11 -15 7 0 22
-11 35 -25 13 -14 30 -25 37 -25 8 0 17 -7 21 -15 3 -8 12 -15 21 -15 8 0 15
-4 15 -9 0 -5 16 -12 35 -15 19 -4 35 -11 35 -16 0 -8 94 -20 160 -20 66 0
160 12 160 20 0 5 16 12 35 16 19 3 35 10 35 15 0 5 7 9 15 9 9 0 18 7 21 15
4 8 13 15 21 15 7 0 24 11 37 25 13 14 28 25 35 25 6 0 11 7 11 15 0 8 4 15 9
15 5 0 12 11 15 25 4 14 11 25 16 25 6 0 10 7 10 15 0 8 4 15 10 15 5 0 12 11
16 25 3 14 10 25 15 25 5 0 9 11 9 25 0 21 5 25 30 25 17 0 30 -4 30 -10 0 -5
11 -10 24 -10 44 0 59 -26 54 -94 -3 -33 -10 -62 -16 -64 -7 -2 -12 -21 -12
-43 0 -28 -4 -39 -15 -39 -9 0 -15 -9 -15 -25 0 -14 -4 -25 -10 -25 -5 0 -10
-7 -10 -15 0 -9 -7 -18 -15 -21 -8 -4 -15 -13 -15 -21 0 -7 -11 -24 -25 -37
-14 -13 -25 -28 -25 -35 0 -6 -5 -11 -11 -11 -6 0 -25 -15 -42 -34 -18 -18
-42 -36 -54 -40 -13 -4 -23 -11 -23 -16 0 -4 -11 -11 -25 -14 -14 -4 -25 -11
-25 -16 0 -6 -13 -10 -30 -10 -16 0 -30 -4 -30 -9 0 -5 -18 -11 -40 -15 -22
-3 -40 -11 -40 -16 0 -6 -51 -10 -130 -10 -79 0 -130 4 -130 10 0 5 -18 13
-40 16 -22 4 -40 10 -40 15 0 5 -13 9 -30 9 -16 0 -30 4 -30 10 0 5 -11 12
-25 16 -14 3 -25 10 -25 14 0 5 -10 12 -22 16 -13 4 -37 22 -55 40 -17 19 -36
34 -42 34 -6 0 -11 5 -11 11 0 7 -11 22 -25 35 -14 13 -25 30 -25 37 0 8 -7
17 -15 21 -8 3 -15 12 -15 21 0 8 -4 15 -10 15 -5 0 -10 11 -10 25 0 16 -6 25
-15 25 -11 0 -15 11 -15 39 0 22 -4 41 -10 43 -5 2 -13 30 -16 64 -7 68 7 94
52 94 13 0 24 5 24 10 0 6 14 10 30 10 20 0 30 -5 30 -15z m-320 -166 c0 -31
6 -56 15 -65 8 -9 15 -29 15 -45 0 -16 5 -29 10 -29 6 0 10 -11 10 -24 0 -14
7 -31 15 -40 8 -8 15 -19 15 -25 0 -6 4 -11 9 -11 5 0 12 -11 15 -25 4 -14 11
-25 16 -25 6 0 10 -7 10 -15 0 -8 7 -15 15 -15 9 0 15 -9 15 -25 0 -14 5 -25
11 -25 14 0 39 -25 39 -39 0 -6 7 -11 15 -11 8 0 15 -7 15 -15 0 -9 9 -15 25
-15 16 0 25 -6 25 -15 0 -8 5 -15 10 -15 6 0 23 -11 38 -25 15 -14 35 -25 44
-25 10 0 18 -4 18 -10 0 -5 11 -12 25 -16 14 -3 25 -10 25 -15 0 -5 9 -9 21
-9 11 0 27 -7 35 -15 9 -9 34 -15 59 -15 26 0 45 -5 48 -12 6 -19 358 -19 365
0 2 7 20 12 42 12 21 0 45 7 54 15 8 8 24 15 35 15 12 0 21 4 21 9 0 5 11 12
25 15 14 4 25 11 25 16 0 6 9 10 20 10 12 0 31 11 44 25 13 14 28 25 35 25 6
0 11 7 11 15 0 9 9 15 25 15 16 0 25 6 25 15 0 8 7 15 15 15 8 0 15 5 15 11 0
14 25 39 39 39 6 0 11 11 11 25 0 16 6 25 15 25 8 0 15 7 15 15 0 8 4 15 10
15 5 0 12 11 16 25 3 14 10 25 15 25 5 0 9 5 9 11 0 6 7 17 15 25 8 9 15 26
15 40 0 13 5 24 10 24 6 0 10 14 10 30 0 20 5 30 15 30 12 0 15 14 15 65 0 63
1 65 26 65 14 0 32 -7 40 -15 9 -8 26 -15 40 -15 13 0 24 -4 24 -10 0 -5 7
-10 15 -10 21 0 21 -128 0 -156 -8 -10 -15 -40 -15 -66 0 -27 -4 -48 -10 -48
-5 0 -10 -11 -10 -24 0 -14 -7 -31 -15 -40 -8 -8 -15 -26 -15 -40 0 -14 -4
-26 -10 -26 -5 0 -12 -11 -16 -25 -3 -14 -10 -25 -14 -25 -4 0 -11 -11 -14
-25 -4 -14 -11 -25 -16 -25 -6 0 -10 -7 -10 -15 0 -8 -4 -15 -10 -15 -5 0 -12
-11 -16 -25 -3 -14 -10 -25 -15 -25 -5 0 -9 -7 -9 -15 0 -8 -5 -15 -11 -15
-14 0 -69 -55 -69 -69 0 -6 -5 -11 -11 -11 -7 0 -22 -11 -35 -25 -13 -14 -28
-25 -34 -25 -6 0 -21 -11 -33 -24 -12 -13 -32 -26 -44 -30 -13 -4 -23 -12 -23
-17 0 -5 -11 -9 -24 -9 -13 0 -26 -7 -30 -15 -3 -8 -17 -15 -31 -15 -14 0 -25
-4 -25 -10 0 -5 -10 -10 -22 -10 -13 0 -32 -7 -42 -15 -11 -8 -37 -15 -57 -15
-21 0 -39 -5 -42 -12 -6 -19 -408 -19 -414 0 -3 7 -21 12 -42 12 -20 0 -46 7
-57 15 -10 8 -29 15 -41 15 -13 0 -23 5 -23 10 0 6 -11 10 -25 10 -14 0 -28 7
-31 15 -4 8 -17 15 -30 15 -13 0 -24 4 -24 9 0 5 -10 13 -22 17 -13 4 -33 17
-45 30 -12 13 -27 24 -33 24 -6 0 -21 11 -34 25 -13 14 -28 25 -35 25 -6 0
-11 6 -11 13 0 6 -18 28 -40 47 -22 19 -40 41 -40 48 0 7 -11 23 -25 36 -14
13 -25 28 -25 35 0 6 -4 11 -10 11 -5 0 -12 11 -16 25 -3 14 -10 25 -15 25 -5
0 -9 11 -9 25 0 16 -6 25 -15 25 -9 0 -15 10 -15 26 0 14 -7 32 -15 40 -8 9
-15 26 -15 40 0 13 -4 24 -10 24 -5 0 -10 24 -10 54 0 34 -5 56 -12 58 -8 3
-14 33 -16 81 -4 66 -2 77 12 77 9 0 16 5 16 10 0 6 11 10 25 10 13 0 30 7 37
15 7 8 25 14 41 15 26 0 27 -2 27 -51z"/>
</g>
</svg>
